<svg width="18" height="18" viewBox="0 0 18 18" fill="none" xmlns="http://www.w3.org/2000/svg">
<path d="M8.24999 1.5V6.3105C7.21148 6.11775 6.13879 6.24979 5.17802 6.68863C4.21724 7.12747 3.41508 7.85178 2.88078 8.76293C2.34647 9.67407 2.10599 10.7278 2.19209 11.7805C2.27818 12.8332 2.68667 13.8338 3.36191 14.6461C4.03716 15.4583 4.94634 16.0426 5.96565 16.3196C6.98496 16.5965 8.06484 16.5525 9.05824 16.1935C10.0516 15.8346 10.9103 15.1782 11.5172 14.3138C12.1241 13.4493 12.4498 12.4188 12.45 11.3625V8.5605C13.2562 8.90341 14.1239 9.07847 15 9.075H15.75V4.875H15C13.5727 4.875 12.45 3.72225 12.45 2.25V1.5H8.24999ZM9.74999 3H11.016C11.3115 4.665 12.576 5.997 14.25 6.3075V7.521C13.4715 7.407 12.7687 7.1145 12.1177 6.67875L10.95 5.89725V11.3625C10.9499 12.0899 10.7318 12.8006 10.3237 13.4027C9.91564 14.0049 9.33641 14.4709 8.66083 14.7405C7.98524 15.0102 7.24433 15.0711 6.53379 14.9153C5.82325 14.7596 5.17571 14.3944 4.67482 13.867C4.17392 13.3395 3.84267 12.674 3.72385 11.9563C3.60503 11.2387 3.70409 10.5019 4.00825 9.84117C4.31241 9.18041 4.80769 8.62602 5.43012 8.24959C6.05256 7.87317 6.77355 7.692 7.49999 7.7295V8.9325C7.01134 8.8948 6.52268 9.00528 6.09778 9.24952C5.67287 9.49376 5.33146 9.86041 5.1181 10.3016C4.90474 10.7428 4.82933 11.2381 4.90173 11.7229C4.97413 12.2076 5.19097 12.6592 5.52395 13.0188C5.85693 13.3785 6.29058 13.6293 6.76831 13.7388C7.24604 13.8482 7.74565 13.811 8.20196 13.6322C8.65826 13.4534 9.05006 13.1411 9.32621 12.7362C9.60236 12.3313 9.75005 11.8526 9.74999 11.3625V3ZM6.37499 11.3625C6.37499 11.1139 6.47376 10.8754 6.64958 10.6996C6.82539 10.5238 7.06385 10.425 7.31249 10.425C7.56113 10.425 7.79959 10.5238 7.9754 10.6996C8.15122 10.8754 8.24999 11.1139 8.24999 11.3625C8.24999 11.6111 8.15122 11.8496 7.9754 12.0254C7.79959 12.2012 7.56113 12.3 7.31249 12.3C7.06385 12.3 6.82539 12.2012 6.64958 12.0254C6.47376 11.8496 6.37499 11.6111 6.37499 11.3625Z" fill="#CBCBCB"/>
</svg>
