<svg width="18" height="18" viewBox="0 0 18 18" fill="none" xmlns="http://www.w3.org/2000/svg">
<path d="M14.2875 3.68254C13.5999 2.98799 12.7809 2.4373 11.8782 2.06258C10.9755 1.68787 10.0073 1.49664 9.02998 1.50004C4.93498 1.50004 1.59748 4.83754 1.59748 8.93254C1.59748 10.245 1.94248 11.52 2.58748 12.645L1.53748 16.5L5.47498 15.465C6.56248 16.0575 7.78498 16.3725 9.02998 16.3725C13.125 16.3725 16.4625 13.035 16.4625 8.94004C16.4625 6.95254 15.69 5.08504 14.2875 3.68254ZM9.02998 15.1125C7.91998 15.1125 6.83248 14.8125 5.87998 14.25L5.65498 14.115L3.31498 14.73L3.93748 12.45L3.78748 12.2175C3.17079 11.2328 2.84333 10.0945 2.84248 8.93254C2.84248 5.52754 5.61748 2.75254 9.02248 2.75254C10.6725 2.75254 12.225 3.39754 13.3875 4.56754C13.9631 5.14052 14.4193 5.82204 14.7295 6.57261C15.0398 7.32319 15.198 8.12788 15.195 8.94004C15.21 12.345 12.435 15.1125 9.02998 15.1125ZM12.42 10.4925C12.2325 10.4025 11.3175 9.95254 11.1525 9.88504C10.98 9.82504 10.86 9.79504 10.7325 9.97504C10.605 10.1625 10.2525 10.5825 10.1475 10.7025C10.0425 10.83 9.92998 10.845 9.74248 10.7475C9.55498 10.6575 8.95498 10.455 8.24998 9.82504C7.69498 9.33004 7.32748 8.72254 7.21498 8.53504C7.10998 8.34754 7.19998 8.25004 7.29747 8.15254C7.37998 8.07004 7.48498 7.93504 7.57498 7.83004C7.66498 7.72504 7.70248 7.64254 7.76248 7.52254C7.82248 7.39504 7.79248 7.29004 7.74748 7.20005C7.70248 7.11004 7.32748 6.19504 7.17747 5.82004C7.02748 5.46004 6.86998 5.50504 6.75748 5.49754H6.39748C6.26998 5.49754 6.07498 5.54254 5.90248 5.73004C5.73748 5.91754 5.25748 6.36754 5.25748 7.28254C5.25748 8.19754 5.92498 9.08254 6.01498 9.20254C6.10498 9.33004 7.32748 11.205 9.18748 12.0075C9.62998 12.2025 9.97498 12.315 10.245 12.3975C10.6875 12.54 11.0925 12.5175 11.415 12.4725C11.775 12.42 12.5175 12.0225 12.6675 11.5875C12.825 11.1525 12.825 10.785 12.7725 10.7025C12.72 10.62 12.6075 10.5825 12.42 10.4925Z" fill="#CBCBCB"/>
</svg>
